<svg id="visual" viewBox="0 0 900 600" width="900" height="600" xmlns="http://www.w3.org/2000/svg" xmlns:xlink="http://www.w3.org/1999/xlink" version="1.1"><rect x="0" y="0" width="900" height="600" fill="#7fbf6e"></rect><path d="M0 465L21.5 467.3C43 469.7 86 474.3 128.8 473.7C171.7 473 214.3 467 257.2 470.7C300 474.3 343 487.7 385.8 482C428.7 476.3 471.3 451.7 514.2 438.5C557 425.3 600 423.7 642.8 417.5C685.7 411.3 728.3 400.7 771.2 412C814 423.3 857 456.7 878.5 473.3L900 490L900 601L878.5 601C857 601 814 601 771.2 601C728.3 601 685.7 601 642.8 601C600 601 557 601 514.2 601C471.3 601 428.7 601 385.8 601C343 601 300 601 257.2 601C214.3 601 171.7 601 128.8 601C86 601 43 601 21.5 601L0 601Z" fill="#f7f7f7" stroke-linecap="round" stroke-linejoin="miter"></path></svg>